<svg xmlns="http://www.w3.org/2000/svg" viewBox="0 0 277 200" fill="none" stroke="#B6FF00" stroke-width="2">
<g transform="matrix(1 0 0 -1 0 200)"><path d="M271.0 2.5 L5.0 2.5 L1.5 6.0 L1.5 195.0 L5.0 198.5 L55.0 198.5 L58.5 195.0 L41.5 139.0 L44.0 134.5 L50.0 134.5 L58.0 147.5 L79.0 147.5 L87.0 134.5 L92.0 134.5 L94.5 137.0 L87.5 161.0 L88.5 163.0 L85.5 167.0 L86.5 168.0 L77.5 195.0 L81.0 198.5 L104.0 198.5 L107.5 195.0 L107.5 137.0 L110.0 134.5 L115.0 134.5 L117.5 137.0 L117.5 195.0 L121.0 198.5 L127.0 198.5 L130.5 195.0 L130.5 137.0 L133.0 134.5 L137.0 134.5 L140.5 141.0 L139.5 160.0 L141.5 170.0 L139.5 174.0 L143.0 177.5 L146.5 174.0 L159.5 147.0 L163.0 143.5 L167.5 149.0 L178.5 173.0 L182.0 176.5 L185.5 173.0 L185.5 137.0 L188.0 134.5 L193.0 134.5 L195.5 137.0 L195.5 195.0 L199.0 198.5 L207.0 198.5 L210.5 195.0 L208.5 193.0 L208.5 138.0 L212.0 134.5 L250.0 134.5 L252.5 137.0 L252.5 141.0 L250.0 143.5 L222.0 143.5 L218.5 147.0 L218.5 184.0 L222.0 187.5 L250.0 187.5 L252.5 190.0 L252.5 195.0 L256.0 198.5 L271.0 198.5 L274.5 195.0 L274.5 147.0 L271.0 143.5 L267.0 143.5 L264.5 141.0 L264.5 137.0 L267.0 134.5 L271.0 134.5 L274.5 131.0 L274.5 6.0 L271.0 2.5 Z"/></g>
</svg>