<?xml version="1.0" standalone="no"?>
<!DOCTYPE svg PUBLIC "-//W3C//DTD SVG 20010904//EN"
 "http://www.w3.org/TR/2001/REC-SVG-20010904/DTD/svg10.dtd">
<svg xmlns="http://www.w3.org/2000/svg" version="1.0" xmlns="http://www.w3.org/2000/svg"
   viewBox="0 0 554.000000 400.000000"
 preserveAspectRatio="xMidYMid meet">
<metadata>
Created by potrace 1.16, written by Peter Selinger 2001-2019
</metadata>
<g transform="translate(0.000000,400.000000) scale(0.100000,-0.100000)"
fill="currentColor" stroke="none">
<path d="M0 2000 l0 -2000 2770 0 2770 0 0 1310 c0 867 -3 1310 -10 1310 -5 0
-10 -4 -10 -10 0 -17 -249 -13 -266 4 -11 11 -14 47 -14 160 l0 146 150 0 150
0 0 540 0 540 -210 0 -210 0 0 -160 0 -160 -350 0 -350 0 0 -366 c0 -303 2
-368 14 -380 12 -12 73 -14 350 -14 l336 0 0 -146 c0 -113 -3 -149 -14 -160
-12 -12 -81 -14 -415 -14 l-401 0 -85 85 -85 85 0 540 0 540 65 65 c35 36 71
65 80 65 8 0 15 5 15 10 0 6 -60 10 -160 10 l-160 0 0 -700 0 -700 -136 0
c-104 0 -139 3 -150 14 -12 12 -14 83 -14 430 0 271 -3 416 -10 416 -5 0 -10
-9 -10 -20 0 -11 -4 -20 -10 -20 -5 0 -10 -9 -10 -20 0 -11 -4 -20 -10 -20 -5
0 -10 -9 -10 -20 0 -11 -4 -20 -10 -20 -5 0 -10 -9 -10 -20 0 -11 -4 -20 -10
-20 -5 0 -10 -9 -10 -20 0 -11 -4 -20 -10 -20 -5 0 -10 -9 -10 -20 0 -11 -4
-20 -10 -20 -5 0 -10 -9 -10 -20 0 -11 -4 -20 -10 -20 -5 0 -10 -9 -10 -20 0
-11 -4 -20 -10 -20 -5 0 -10 -9 -10 -20 0 -11 -4 -20 -10 -20 -5 0 -10 -9 -10
-20 0 -11 -4 -20 -10 -20 -5 0 -10 -9 -10 -20 0 -11 -4 -20 -10 -20 -5 0 -10
-9 -10 -20 0 -11 -4 -20 -10 -20 -5 0 -10 -9 -10 -20 0 -11 -4 -20 -10 -20 -5
0 -10 -9 -10 -20 0 -11 -4 -20 -10 -20 -5 0 -10 -9 -10 -20 0 -11 -4 -20 -10
-20 -5 0 -10 -9 -10 -20 0 -11 -4 -20 -10 -20 -5 0 -10 -9 -10 -20 0 -11 -4
-20 -10 -20 -5 0 -10 -9 -10 -20 0 -11 -4 -20 -10 -20 -5 0 -10 -9 -10 -20 0
-11 -3 -20 -6 -20 -11 0 -34 29 -34 44 0 9 -4 16 -10 16 -5 0 -10 9 -10 20 0
11 -4 20 -10 20 -5 0 -10 9 -10 20 0 11 -4 20 -10 20 -5 0 -10 9 -10 20 0 11
-4 20 -10 20 -5 0 -10 9 -10 20 0 11 -4 20 -10 20 -5 0 -10 9 -10 20 0 11 -4
20 -10 20 -5 0 -10 9 -10 20 0 11 -4 20 -10 20 -5 0 -10 9 -10 20 0 11 -4 20
-10 20 -5 0 -10 9 -10 20 0 11 -4 20 -10 20 -5 0 -10 9 -10 20 0 11 -4 20 -10
20 -5 0 -10 9 -10 20 0 11 -4 20 -10 20 -5 0 -10 9 -10 20 0 11 -4 20 -10 20
-5 0 -10 9 -10 20 0 11 -4 20 -10 20 -5 0 -10 9 -10 20 0 11 -4 20 -10 20 -5
0 -10 9 -10 20 0 11 -4 20 -10 20 -5 0 -10 9 -10 20 0 11 -4 20 -10 20 -5 0
-10 9 -10 20 0 11 -4 20 -10 20 -5 0 -10 7 -10 16 0 15 -23 44 -34 44 -3 0 -6
-193 -6 -430 l0 -430 -136 0 c-104 0 -139 3 -150 14 -12 12 -14 118 -14 690 0
444 3 676 10 676 6 0 10 5 10 10 0 6 -33 10 -80 10 l-80 0 0 -700 0 -700 -160
0 -160 0 0 700 0 700 -260 0 c-143 0 -260 -4 -260 -8 0 -4 9 -14 20 -22 14
-10 20 -26 20 -52 0 -21 5 -38 10 -38 6 0 10 -18 10 -40 0 -22 5 -40 10 -40 6
0 10 -9 10 -20 0 -11 5 -20 10 -20 6 0 10 -18 10 -40 0 -22 5 -40 10 -40 6 0
10 -18 10 -40 0 -22 5 -40 10 -40 6 0 10 -13 10 -30 0 -16 5 -30 10 -30 6 0
10 -18 10 -40 0 -22 5 -40 10 -40 6 0 10 -13 10 -30 0 -16 5 -30 10 -30 6 0
10 -13 10 -30 0 -16 5 -30 10 -30 6 0 10 -18 10 -40 0 -22 5 -40 10 -40 6 0
10 -13 10 -30 0 -16 5 -30 10 -30 6 0 10 -18 10 -40 0 -22 5 -40 10 -40 6 0
10 -18 10 -40 0 -22 5 -40 10 -40 6 0 10 -9 10 -20 0 -11 5 -20 10 -20 6 0 10
-18 10 -40 0 -22 5 -40 10 -40 6 0 10 -18 10 -40 0 -22 5 -40 10 -40 6 0 10
-13 10 -30 0 -16 5 -30 10 -30 6 0 10 -13 10 -30 0 -16 5 -30 10 -30 6 0 10
-18 10 -39 0 -22 5 -41 12 -43 9 -3 8 -9 -4 -21 -14 -14 -39 -17 -158 -17
-154 0 -170 5 -170 54 0 14 -4 26 -10 26 -5 0 -10 18 -10 40 0 22 -4 40 -10
40 -5 0 -10 18 -10 40 0 22 -4 40 -10 40 -5 0 -10 9 -10 20 0 19 -7 20 -216
20 -240 0 -244 -1 -244 -64 0 -20 -4 -36 -10 -36 -5 0 -10 -13 -10 -30 0 -16
-4 -30 -10 -30 -5 0 -10 -13 -10 -30 0 -16 -4 -30 -10 -30 -5 0 -10 -13 -10
-30 l0 -30 -156 0 c-132 0 -158 3 -172 17 -12 12 -13 18 -4 21 6 2 12 17 12
33 0 16 5 29 10 29 6 0 10 14 10 30 0 17 5 30 10 30 6 0 10 18 10 40 0 22 5
40 10 40 6 0 10 14 10 30 0 17 5 30 10 30 6 0 10 14 10 30 0 17 5 30 10 30 6
0 10 18 10 40 0 22 5 40 10 40 6 0 10 9 10 20 0 11 5 20 10 20 6 0 10 18 10
40 0 22 5 40 10 40 6 0 10 14 10 30 0 17 5 30 10 30 6 0 10 14 10 30 0 17 5
30 10 30 6 0 10 18 10 40 0 22 5 40 10 40 6 0 10 18 10 40 0 22 5 40 10 40 6
0 10 9 10 20 0 11 5 20 10 20 6 0 10 18 10 40 0 22 5 40 10 40 6 0 10 18 10
40 0 22 5 40 10 40 6 0 10 14 10 30 0 17 5 30 10 30 6 0 10 14 10 30 0 17 5
30 10 30 6 0 10 14 10 30 0 17 5 30 10 30 6 0 10 18 10 40 0 22 5 40 10 40 6
0 10 18 10 40 0 22 5 40 10 40 6 0 10 5 10 10 0 7 -200 10 -580 10 l-580 0 0
-2000z m1246 266 c8 -8 14 -26 14 -40 0 -14 5 -26 10 -26 6 0 10 -13 10 -30 0
-16 5 -30 10 -30 6 0 10 -18 10 -40 0 -22 -3 -40 -6 -40 -11 0 -34 29 -34 44
0 12 -10 16 -40 16 -38 0 -40 -2 -40 -30 0 -23 -4 -30 -20 -30 -13 0 -20 7
-20 20 0 11 5 20 10 20 6 0 10 14 10 30 0 17 5 30 10 30 6 0 10 14 10 30 0 17
5 30 10 30 6 0 10 14 10 30 0 33 21 40 46 16z m354 4 c0 -5 -9 -10 -20 -10
-19 0 -20 -7 -20 -90 0 -83 1 -90 20 -90 11 0 20 -4 20 -10 0 -6 -27 -10 -60
-10 -33 0 -60 4 -60 10 0 6 9 10 20 10 19 0 20 7 20 90 0 83 -1 90 -20 90 -11
0 -20 5 -20 10 0 6 27 10 60 10 33 0 60 -4 60 -10z m526 -4 c8 -8 14 -26 14
-40 0 -19 5 -26 20 -26 16 0 20 -7 20 -30 0 -23 -4 -30 -20 -30 -13 0 -20 7
-20 20 0 11 -4 20 -10 20 -6 0 -10 -27 -10 -60 0 -53 -2 -60 -20 -60 -19 0
-20 7 -20 110 0 93 2 110 16 110 8 0 22 -6 30 -14z m114 -96 c0 -103 -1 -110
-20 -110 -18 0 -20 7 -20 70 0 40 -4 70 -10 70 -14 0 -12 48 3 65 6 8 20 14
30 15 15 0 17 -12 17 -110z m246 96 c8 -8 14 -22 14 -30 0 -9 5 -16 10 -16 6
0 10 -18 10 -40 0 -22 5 -40 10 -40 6 0 10 -13 10 -30 0 -16 5 -30 10 -30 6 0
10 -4 10 -10 0 -5 -9 -10 -20 -10 -12 0 -20 7 -20 16 0 22 -25 44 -50 44 -25
0 -50 -22 -50 -44 0 -9 -8 -16 -20 -16 -11 0 -20 5 -20 10 0 6 5 10 10 10 6 0
10 18 10 40 0 22 5 40 10 40 6 0 10 14 10 30 0 17 5 30 10 30 6 0 10 14 10 30
0 33 21 40 46 16z m234 -26 c0 -22 3 -40 6 -40 3 0 23 18 44 40 21 22 46 40
54 40 23 0 20 -8 -14 -40 -29 -27 -42 -80 -20 -80 6 0 10 -8 10 -18 0 -10 9
-24 20 -32 18 -13 29 -50 15 -50 -13 0 -75 71 -75 85 0 19 -7 19 -26 1 -8 -8
-14 -31 -14 -50 0 -20 -4 -36 -10 -36 -6 0 -10 43 -10 110 0 67 4 110 10 110
6 0 10 -18 10 -40z m420 30 c0 -5 -21 -10 -46 -10 -66 0 -93 -32 -57 -68 12
-12 18 -13 21 -4 5 16 30 15 48 -2 22 -23 17 -26 -36 -26 l-50 0 0 -40 0 -40
60 0 c33 0 60 -4 60 -10 0 -6 -30 -10 -70 -10 l-70 0 0 110 0 110 70 0 c40 0
70 -4 70 -10z m286 -4 c21 -22 18 -79 -6 -96 -21 -15 -28 -50 -10 -50 6 0 10
-9 10 -20 0 -11 5 -20 10 -20 6 0 10 -4 10 -10 0 -5 -9 -10 -20 -10 -13 0 -20
7 -20 20 0 11 -4 20 -10 20 -5 0 -10 7 -10 16 0 8 -7 22 -15 30 -13 14 -17 14
-30 0 -8 -8 -15 -31 -15 -50 0 -20 -4 -36 -10 -36 -6 0 -10 43 -10 110 l0 110
56 0 c35 0 61 -5 70 -14z m300 0 c19 -20 18 -26 -6 -26 -11 0 -20 5 -20 10 0
6 -13 10 -30 10 -26 0 -30 -4 -30 -26 0 -31 21 -54 50 -54 30 0 50 -23 50 -60
0 -42 -20 -60 -70 -60 -23 0 -48 6 -56 14 -19 20 -18 26 6 26 11 0 20 -4 20
-10 0 -16 50 -11 68 7 12 12 13 18 4 21 -6 2 -12 12 -12 23 0 14 -7 19 -30 19
-16 0 -30 5 -30 10 0 6 -9 10 -20 10 -16 0 -20 7 -20 35 0 20 6 42 13 50 16
19 94 19 113 1z m580 0 c19 -20 18 -26 -6 -26 -11 0 -20 5 -20 10 0 15 -49 12
-66 -4 -9 -10 -14 -36 -14 -76 0 -40 5 -66 14 -76 17 -16 66 -19 66 -4 0 6 9
10 20 10 24 0 25 -6 6 -26 -8 -8 -33 -14 -56 -14 -23 0 -48 6 -56 14 -18 19
-20 170 -1 191 16 19 94 19 113 1z m214 -86 l0 -100 50 0 c28 0 50 -4 50 -10
0 -6 -30 -10 -70 -10 l-70 0 0 110 c0 103 1 110 20 110 19 0 20 -7 20 -100z
m280 14 c0 -91 10 -114 50 -114 40 0 50 23 50 114 0 51 4 86 10 86 6 0 10 -39
10 -96 0 -111 -8 -124 -70 -124 -62 0 -70 13 -70 124 0 57 4 96 10 96 6 0 10
-35 10 -86z m406 72 c16 -17 19 -66 4 -66 -5 0 -10 -9 -10 -20 0 -11 5 -20 10
-20 15 0 12 -70 -4 -86 -9 -9 -35 -14 -70 -14 l-56 0 0 110 0 110 56 0 c35 0
61 -5 70 -14z m-1786 -756 c0 -6 -110 -10 -310 -10 -200 0 -310 4 -310 10 0 6
110 10 310 10 200 0 310 -4 310 -10z m-2560 -40 c0 -5 -9 -10 -20 -10 -11 0
-20 5 -20 10 0 6 9 10 20 10 11 0 20 -4 20 -10z m120 0 c0 -5 -13 -10 -30 -10
-16 0 -30 5 -30 10 0 6 14 10 30 10 17 0 30 -4 30 -10z m300 -200 c0 -5 -9
-10 -20 -10 -11 0 -20 5 -20 10 0 6 9 10 20 10 11 0 20 -4 20 -10z m80 0 c0
-5 -13 -10 -30 -10 -16 0 -30 5 -30 10 0 6 14 10 30 10 17 0 30 -4 30 -10z m0
-40 c0 -5 -4 -10 -10 -10 -5 0 -10 5 -10 10 0 6 5 10 10 10 6 0 10 -4 10 -10z
m80 0 c0 -5 -4 -10 -10 -10 -5 0 -10 5 -10 10 0 6 5 10 10 10 6 0 10 -4 10
-10z m-840 -60 c0 -5 -4 -10 -10 -10 -5 0 -10 5 -10 10 0 6 5 10 10 10 6 0 10
-4 10 -10z m60 -80 c0 -5 -13 -10 -30 -10 -16 0 -30 5 -30 10 0 6 14 10 30 10
17 0 30 -4 30 -10z m40 -60 c0 -5 -4 -10 -10 -10 -5 0 -10 5 -10 10 0 6 5 10
10 10 6 0 10 -4 10 -10z m-40 -60 c0 -5 -18 -10 -40 -10 -22 0 -40 5 -40 10 0
6 18 10 40 10 22 0 40 -4 40 -10z m0 -50 c0 -11 5 -20 10 -20 6 0 10 -4 10
-10 0 -5 -13 -10 -30 -10 -16 0 -30 5 -30 10 0 6 5 10 10 10 6 0 10 9 10 20 0
11 5 20 10 20 6 0 10 -9 10 -20z m-100 -30 c0 -5 -4 -10 -10 -10 -5 0 -10 5
-10 10 0 6 5 10 10 10 6 0 10 -4 10 -10z m40 0 c0 -5 -4 -10 -10 -10 -5 0 -10
5 -10 10 0 6 5 10 10 10 6 0 10 -4 10 -10z m60 -70 l0 -40 70 0 c40 0 70 -4
70 -10 0 -6 -63 -10 -170 -10 -107 0 -170 4 -170 10 0 6 14 10 30 10 17 0 30
5 30 10 0 6 27 10 60 10 l60 0 0 30 c0 17 5 30 10 30 6 0 10 -18 10 -40z
m-500 10 c0 -5 -9 -10 -20 -10 -11 0 -20 5 -20 10 0 6 9 10 20 10 11 0 20 -4
20 -10z m220 0 c0 -5 -4 -10 -10 -10 -5 0 -10 5 -10 10 0 6 5 10 10 10 6 0 10
-4 10 -10z m60 -60 c0 -5 -4 -10 -10 -10 -5 0 -10 5 -10 10 0 6 5 10 10 10 6
0 10 -4 10 -10z m860 0 c0 -5 -4 -10 -10 -10 -5 0 -10 5 -10 10 0 6 5 10 10
10 6 0 10 -4 10 -10z m-660 -100 c0 -5 12 -10 26 -10 14 0 32 -7 41 -15 14
-14 13 -18 -8 -37 -16 -14 -20 -22 -11 -25 6 -3 12 -13 12 -24 0 -17 -8 -19
-69 -19 -46 0 -71 4 -75 13 -5 10 -7 10 -12 0 -9 -20 -35 -15 -57 10 -13 15
-21 18 -24 10 -7 -20 -23 -15 -23 6 0 11 -6 21 -12 23 -21 7 17 38 45 38 14 0
28 6 31 13 5 10 7 10 12 0 9 -20 24 -15 24 7 0 17 7 20 50 20 28 0 50 -4 50
-10z m-260 -20 c0 -5 -9 -10 -20 -10 -11 0 -20 5 -20 10 0 6 9 10 20 10 11 0
20 -4 20 -10z m920 -100 c0 -5 -4 -10 -10 -10 -5 0 -10 5 -10 10 0 6 5 10 10
10 6 0 10 -4 10 -10z m-677 -42 c4 -10 8 -10 15 1 8 11 15 9 36 -12 14 -14 26
-33 26 -42 0 -18 -16 -20 -23 -2 -3 8 -11 5 -24 -10 -22 -25 -48 -30 -57 -10
-5 10 -7 10 -12 0 -3 -7 -14 -13 -25 -13 -10 0 -19 -4 -19 -10 0 -15 -29 -12
-46 4 -19 20 -18 26 6 26 11 0 20 5 20 10 0 6 -18 10 -40 10 -22 0 -40 5 -40
10 0 6 18 10 40 10 22 0 40 -4 40 -10 0 -5 9 -10 20 -10 13 0 20 7 20 20 0 13
7 20 20 20 11 0 20 5 20 10 0 14 17 12 23 -2z m57 -94 c0 -3 -6 -12 -14 -20
-17 -16 -66 -19 -66 -4 0 6 9 10 20 10 11 0 20 5 20 10 0 6 9 10 20 10 11 0
20 -3 20 -6z m-40 -124 c33 -35 40 -37 40 -10 0 11 5 20 10 20 15 0 12 -29 -4
-46 -18 -17 -42 -18 -50 -1 -5 10 -7 10 -12 0 -9 -20 -33 -15 -59 12 -32 31
-31 35 5 35 17 0 30 5 30 10 0 17 11 11 40 -20z m-180 0 c0 -5 -4 -10 -10 -10
-5 0 -10 5 -10 10 0 6 5 10 10 10 6 0 10 -4 10 -10z m40 -40 c0 -5 -4 -10 -10
-10 -5 0 -10 5 -10 10 0 6 5 10 10 10 6 0 10 -4 10 -10z m60 0 c0 -5 -9 -10
-20 -10 -11 0 -20 5 -20 10 0 6 9 10 20 10 11 0 20 -4 20 -10z m-20 -60 c0 -5
-9 -10 -20 -10 -11 0 -20 5 -20 10 0 6 9 10 20 10 11 0 20 -4 20 -10z m80 0
c0 -5 -4 -10 -10 -10 -5 0 -10 5 -10 10 0 6 5 10 10 10 6 0 10 -4 10 -10z"/>
<path d="M1213 2205 c-21 -23 -16 -65 7 -65 17 0 20 7 20 40 0 42 -7 48 -27
25z"/>
<path d="M2460 2200 c0 -11 -4 -20 -10 -20 -5 0 -10 -9 -10 -20 0 -16 7 -20
30 -20 23 0 30 4 30 20 0 11 -4 20 -10 20 -5 0 -10 9 -10 20 0 11 -4 20 -10
20 -5 0 -10 -9 -10 -20z"/>
<path d="M3333 2245 c-7 -8 -13 -26 -13 -40 0 -23 4 -25 40 -25 l40 0 0 40 c0
37 -2 40 -27 40 -16 -1 -34 -7 -40 -15z"/>
<path d="M5120 2234 c0 -14 7 -32 15 -40 13 -14 17 -14 30 0 8 8 15 26 15 40
0 22 -4 26 -30 26 -26 0 -30 -4 -30 -26z"/>
<path d="M5120 2120 c0 -36 2 -40 26 -40 26 0 54 20 54 40 0 20 -28 40 -54 40
-24 0 -26 -4 -26 -40z"/>
<path d="M580 650 c0 -5 5 -10 10 -10 6 0 10 5 10 10 0 6 -4 10 -10 10 -5 0
-10 -4 -10 -10z"/>
<path d="M2960 3980 c0 -11 5 -20 10 -20 6 0 10 -9 10 -20 0 -11 5 -20 10 -20
6 0 10 -9 10 -20 0 -11 5 -20 10 -20 6 0 10 -9 10 -20 0 -11 5 -20 10 -20 6 0
10 -9 10 -20 0 -11 5 -20 10 -20 6 0 10 -9 10 -20 0 -11 5 -20 10 -20 6 0 10
-13 10 -30 0 -16 5 -30 10 -30 6 0 10 -9 10 -20 0 -11 5 -20 10 -20 6 0 10 -9
10 -20 0 -11 5 -20 10 -20 6 0 10 -9 10 -20 0 -11 5 -20 10 -20 6 0 10 -9 10
-20 0 -11 5 -20 10 -20 6 0 10 -9 10 -20 0 -11 5 -20 10 -20 6 0 10 -9 10 -20
0 -11 5 -20 10 -20 6 0 10 -13 10 -30 0 -16 5 -30 10 -30 6 0 10 -7 10 -16 0
-15 23 -44 34 -44 3 0 6 14 6 30 0 17 5 30 10 30 6 0 10 9 10 20 0 11 5 20 10
20 6 0 10 9 10 20 0 11 5 20 10 20 6 0 10 9 10 20 0 11 5 20 10 20 6 0 10 9
10 20 0 11 5 20 10 20 6 0 10 9 10 20 0 11 5 20 10 20 6 0 10 9 10 20 0 11 5
20 10 20 6 0 10 9 10 20 0 11 5 20 10 20 6 0 10 9 10 20 0 11 5 20 10 20 6 0
10 9 10 20 0 11 5 20 10 20 6 0 10 9 10 20 0 11 5 20 10 20 6 0 10 9 10 20 0
11 5 20 10 20 6 0 10 9 10 20 0 11 5 20 10 20 6 0 10 14 10 30 0 17 5 30 10
30 6 0 10 9 10 20 0 11 5 20 10 20 6 0 10 5 10 10 0 6 -110 10 -310 10 -303 0
-310 0 -310 -20z"/>
<path d="M1360 3600 c0 -22 -4 -40 -10 -40 -5 0 -10 -18 -10 -40 0 -22 -4 -40
-10 -40 -5 0 -10 -13 -10 -30 0 -16 -4 -30 -10 -30 -5 0 -10 -18 -10 -40 0
-22 -4 -40 -10 -40 -5 0 -10 -13 -10 -30 0 -16 -4 -30 -10 -30 -5 0 -10 -18
-10 -40 l0 -40 120 0 c113 0 120 1 120 20 0 11 -4 20 -10 20 -5 0 -10 18 -10
40 0 22 -4 40 -10 40 -5 0 -10 18 -10 40 0 22 -4 40 -10 40 -5 0 -10 14 -10
30 0 17 -4 30 -10 30 -5 0 -10 18 -10 40 0 22 -4 40 -10 40 -5 0 -10 16 -10
36 0 31 -18 64 -34 64 -3 0 -6 -18 -6 -40z"/>
</g>
</svg>
