<svg xmlns="http://www.w3.org/2000/svg" viewBox="0 0 214.48 84.86">
  <path d="M20.240999999999996 65.46935C20.240999999999996 53.246900000000004 20.240999999999996 26.155100000000004 20.240999999999996 14.088350000000013C20.240999999999996 13.465550000000007 20.163149999999998 13.38770000000001 19.4625 13.38770000000001C14.324399999999997 13.38770000000001 11.44395 13.38770000000001 6.539399999999999 13.38770000000001C5.838749999999999 13.38770000000001 5.838749999999999 13.309850000000012 5.838749999999999 14.088350000000013C5.838749999999999 32.694500000000005 5.838749999999999 45.38405 5.838749999999999 65.46935C5.838749999999999 66.24785 5.838749999999999 66.17 6.539399999999999 66.17C11.44395 66.17 14.324399999999997 66.17 19.4625 66.17C20.163149999999998 66.17 20.240999999999996 66.09215 20.240999999999996 65.46935Z" fill="#000000"/>
  <path d="M72.4005 66.55925C72.63405 50.36645 72.71189999999999 29.50265000000001 72.4005 14.321900000000007C72.4005 13.543400000000013 72.4005 13.38770000000001 71.62199999999999 13.38770000000001C66.71744999999999 13.38770000000001 64.4598 13.38770000000001 59.788799999999995 13.38770000000001C59.166 13.38770000000001 59.166 13.465550000000007 59.166 14.321900000000007V37.6769C59.166 37.6769 40.092749999999995 20.004950000000008 28.960199999999997 12.064250000000008C28.72665 11.908550000000012 28.4931 11.830700000000007 28.3374 11.98640000000001C28.1817 12.064250000000008 28.103849999999998 12.219950000000011 28.103849999999998 12.609200000000008C27.79245 33.16160000000001 27.714599999999997 45.539750000000005 28.103849999999998 65.39150000000001C28.103849999999998 65.7029 28.3374 66.17 28.88235 66.17C33.553349999999995 66.17 35.733149999999995 66.17 40.637699999999995 66.17C41.33834999999999 66.17 41.33834999999999 66.17 41.33834999999999 65.46935V41.64725000000001C41.33834999999999 41.64725000000001 59.71095 58.5407 71.46629999999999 67.33775C71.77769999999998 67.57130000000001 72.01124999999999 67.64915 72.16694999999999 67.57130000000001C72.4005 67.49345 72.4005 67.1042 72.4005 66.55925Z" fill="#000000"/>
  <path d="M132.73424999999997 39.93455C132.73424999999997 24.675950000000007 120.82319999999999 12.29780000000001 105.09749999999998 12.29780000000001C89.37179999999998 12.29780000000001 77.46074999999999 24.675950000000007 77.46074999999999 39.93455C77.46074999999999 55.19315 89.37179999999998 67.49345 105.09749999999998 67.49345C120.82319999999999 67.49345 132.73424999999997 55.19315 132.73424999999997 39.93455ZM118.17629999999997 39.93455C118.17629999999997 47.953100000000006 113.34959999999998 54.1811 105.09749999999998 54.1811C96.68969999999999 54.1811 92.01869999999998 47.953100000000006 92.01869999999998 39.93455C92.01869999999998 31.916000000000004 96.68969999999999 25.610150000000004 105.09749999999998 25.610150000000004C113.34959999999998 25.610150000000004 118.17629999999997 31.916000000000004 118.17629999999997 39.93455Z" fill="#d72231"/>
  <path d="M195.94844999999998 14.399750000000012C196.25984999999997 13.38770000000001 196.25984999999997 13.38770000000001 195.24779999999998 13.38770000000001H183.18104999999997C182.55825 13.38770000000001 182.55825 13.309850000000012 182.40254999999996 14.16620000000001C180.45629999999997 21.01700000000001 174.46184999999997 39.31175 174.46184999999997 39.31175C174.46184999999997 39.31175 166.75469999999996 18.05870000000001 164.96414999999996 13.62125000000001C164.80844999999997 13.154150000000008 164.4192 12.920600000000007 164.02994999999999 12.920600000000007C163.64069999999998 12.920600000000007 163.3293 13.154150000000008 163.09574999999998 13.62125000000001C161.1495 17.825150000000008 152.89739999999998 39.31175 152.89739999999998 39.31175C152.89739999999998 39.31175 146.90294999999998 21.406250000000007 145.11239999999998 14.789000000000009C144.72314999999998 13.699100000000008 144.41174999999998 13.465550000000007 143.08829999999998 13.38770000000001H131.09939999999997C130.08735 13.38770000000001 130.24304999999998 13.543400000000013 130.78799999999998 14.789000000000009C138.88439999999997 37.287650000000006 143.08829999999998 47.719550000000005 150.56189999999998 66.87065C150.71759999999998 67.2599 151.10684999999998 67.33775 151.49609999999998 67.33775C151.88534999999996 67.33775 152.19674999999998 67.2599 152.35244999999998 66.87065C158.11334999999997 53.8697 163.09574999999998 42.97070000000001 163.09574999999998 42.97070000000001C163.09574999999998 42.97070000000001 167.53319999999997 52.85765000000001 173.68334999999996 66.7928C173.83905 67.18205 174.22829999999996 67.2599 174.61754999999997 67.2599C175.00679999999997 67.2599 175.39604999999997 67.1042 175.55174999999997 66.6371C182.86964999999998 47.408150000000006 187.30709999999996 36.587 195.94844999999998 14.399750000000012Z" fill="#000000"/>
  <path d="M212.53049999999996 65.46935C212.53049999999996 53.246900000000004 212.53049999999996 26.155100000000004 212.53049999999996 14.088350000000013C212.53049999999996 13.465550000000007 212.45264999999998 13.38770000000001 211.75199999999998 13.38770000000001C206.61389999999997 13.38770000000001 203.73344999999998 13.38770000000001 198.82889999999998 13.38770000000001C198.12824999999998 13.38770000000001 198.12824999999998 13.309850000000012 198.12824999999998 14.088350000000013C198.12824999999998 32.694500000000005 198.12824999999998 45.38405 198.12824999999998 65.46935C198.12824999999998 66.24785 198.12824999999998 66.17 198.82889999999998 66.17C203.73344999999998 66.17 206.61389999999997 66.17 211.75199999999998 66.17C212.45264999999998 66.17 212.53049999999996 66.09215 212.53049999999996 65.46935Z" fill="#000000"/>
</svg>