<?xml version="1.0" encoding="UTF-8"?>
<svg xmlns="http://www.w3.org/2000/svg" version="1.1" viewBox="0 0 522.4 128.8">
  <defs>
    <style>
      .cls-1 {
        fill: #036;
      }

      .cls-2 {
        fill: #ccc;
      }

      .cls-3 {
        isolation: isolate;
      }
    </style>
  </defs>
  <g>
    <g id="Calque_2">
      <g id="Calque_1-2">
        <g class="cls-3">
          <g class="cls-3">
            <path class="cls-1" d="M153.8,76.9l4.6-27.1h7l5.4,14.5,5.4-14.5h7l4.6,27.1h-7l-2.3-15.6-6.4,15.6h-2.8l-6.1-15.6-2.3,15.6h-7Z"></path>
            <path class="cls-1" d="M208.9,72.1h-10.1l-1.6,4.7h-7.5l10.3-27.1h7.7l10.3,27.1h-7.5l-1.6-4.7ZM207,66.8l-3.2-9-3.2,9h6.3Z"></path>
            <path class="cls-1" d="M228.2,49.7v27.1h-7.1v-27.1h7.1Z"></path>
            <path class="cls-1" d="M244.2,55.7v21.2h-7.1v-21.2h-5.8v-6h18.6v6h-5.8Z"></path>
            <path class="cls-1" d="M275.7,76.9h-8.8l-6.7-10.4v10.4h-7.1v-27.1h11c1.5,0,2.8.2,4,.7s2.1,1,2.8,1.8c.7.8,1.3,1.7,1.7,2.7.4,1,.6,2.1.6,3.2,0,2.1-.5,3.7-1.5,5-1,1.3-2.5,2.2-4.4,2.6l8.5,11.1ZM260.2,61.9h1.3c1.4,0,2.5-.3,3.2-.9.7-.6,1.1-1.4,1.1-2.5s-.4-1.9-1.1-2.5c-.7-.6-1.8-.9-3.2-.9h-1.3v6.7Z"></path>
            <path class="cls-1" d="M285.7,49.7v27.1h-7.1v-27.1h7.1Z"></path>
            <path class="cls-1" d="M306.3,56.7c-.8-.6-1.5-1.1-2.3-1.4-.8-.3-1.5-.5-2.2-.5s-1.7.2-2.2.6c-.6.4-.9,1-.9,1.7s.1.9.4,1.2c.3.3.7.6,1.1.8.5.2,1,.4,1.6.6.6.2,1.2.3,1.7.5,2.3.8,4,1.8,5.1,3.1,1.1,1.3,1.6,3,1.6,5s-.2,2.7-.7,3.8c-.5,1.1-1.2,2.1-2.1,2.9-.9.8-2,1.4-3.3,1.9-1.3.4-2.8.7-4.4.7-3.4,0-6.6-1-9.5-3.1l3-5.7c1.1.9,2.1,1.6,3.1,2.1,1,.5,2.1.7,3.1.7s2-.3,2.6-.8c.6-.5.8-1.1.8-1.8s0-.8-.2-1.1c-.1-.3-.4-.6-.7-.8-.3-.3-.8-.5-1.3-.7s-1.2-.5-2-.7c-.9-.3-1.8-.6-2.7-1-.9-.3-1.7-.8-2.3-1.4-.7-.6-1.2-1.3-1.7-2.2s-.6-2-.6-3.3.2-2.6.7-3.7c.4-1.1,1.1-2,1.9-2.8.8-.8,1.8-1.4,3-1.8,1.2-.4,2.5-.6,3.9-.6s2.7.2,4.2.6c1.5.4,2.9.9,4.2,1.6l-2.8,5.5Z"></path>
            <path class="cls-1" d="M330.1,55.7h-8.4v4.5h7.9v6h-7.9v4.7h8.4v6h-15.4v-27.1h15.4v6Z"></path>
          </g>
          <g class="cls-3">
            <path class="cls-1" d="M364,72.1h-10.1l-1.6,4.7h-7.5l10.3-27.1h7.7l10.3,27.1h-7.5l-1.6-4.7ZM362.1,66.8l-3.2-9-3.2,9h6.3Z"></path>
          </g>
          <g class="cls-3">
            <path class="cls-1" d="M379,49.7l6.6,16.5,6.6-16.5h7.7l-11.4,27.1h-5.6l-11.4-27.1h7.7Z"></path>
            <path class="cls-1" d="M418.1,55.7h-8.4v4.5h7.9v6h-7.9v4.7h8.4v6h-15.4v-27.1h15.4v6Z"></path>
            <path class="cls-1" d="M423.2,76.9v-27.1h7.1l13,16.6v-16.6h7v27.1h-7l-13-16.6v16.6h-7.1Z"></path>
            <path class="cls-1" d="M463,49.7v27.1h-7.1v-27.1h7.1Z"></path>
            <path class="cls-1" d="M491.3,76.9h-8.8l-6.7-10.4v10.4h-7.1v-27.1h11c1.5,0,2.8.2,4,.7,1.1.4,2.1,1,2.8,1.8.7.8,1.3,1.7,1.7,2.7s.6,2.1.6,3.2c0,2.1-.5,3.7-1.5,5-1,1.3-2.5,2.2-4.4,2.6l8.5,11.1ZM475.8,61.9h1.3c1.4,0,2.5-.3,3.2-.9s1.1-1.4,1.1-2.5-.4-1.9-1.1-2.5-1.8-.9-3.2-.9h-1.3v6.7Z"></path>
          </g>
        </g>
        <g>
          <rect class="cls-1" x="-6.4" y="47.4" width="105.5" height="38.5" rx="19.3" ry="19.3" transform="translate(-34.5 73.4) rotate(-60)"></rect>
          <rect class="cls-1" x="44.4" y="48.4" width="103.3" height="38.5" rx="19.3" ry="19.3" transform="translate(-10.5 117) rotate(-60)"></rect>
          <circle class="cls-2" cx="129.1" cy="96.2" r="19"></circle>
        </g>
      </g>
    </g>
  </g>
</svg>
